HIERARCHY
ROOT Hips
{
  OFFSET 0.0483966 85.9705 1.91466
  CHANNELS 6 Xposition Yposition Zposition Zrotation Xrotation Yrotation
  JOINT Spine
  {
    OFFSET 0 10.1816 0.1315
    CHANNELS 3 Zrotation Xrotation Yrotation
    JOINT Spine1
    {
      OFFSET 0 10.0835 -1.0008
      CHANNELS 3 Zrotation Xrotation Yrotation
      JOINT Spine2
      {
        OFFSET 0 9.1 -1.3734
        CHANNELS 3 Zrotation Xrotation Yrotation
        JOINT Neck
        {
          OFFSET 0 16.6717 -2.5162
          CHANNELS 3 Zrotation Xrotation Yrotation
          JOINT Head
          {
            OFFSET 0 9.6179 1.685
            CHANNELS 3 Zrotation Xrotation Yrotation
            End Site
            {
              OFFSET 0 0 0
            }
          }
        }
        JOINT LeftShoulder
        {
          OFFSET 4.5704 10.946 -2.628
          CHANNELS 3 Zrotation Xrotation Yrotation
          JOINT LeftArm
          {
            OFFSET 10.5924 -0.5246 -2.2321
            CHANNELS 3 Zrotation Xrotation Yrotation
            JOINT LeftForeArm
            {
              OFFSET 27.8415 -0.0001 0
              CHANNELS 3 Zrotation Xrotation Yrotation
              JOINT LeftHand
              {
                OFFSET 28.3288 0 0
                CHANNELS 3 Zrotation Xrotation Yrotation
                End Site
                {
                  OFFSET 0 0 0
                }
              }
            }
          }
        }
        JOINT RightShoulder
        {
          OFFSET -4.57 10.9462 -2.628
          CHANNELS 3 Zrotation Xrotation Yrotation
          JOINT RightArm
          {
            OFFSET -10.5928 -0.5248 -2.2321
            CHANNELS 3 Zrotation Xrotation Yrotation
            JOINT RightForeArm
            {
              OFFSET -27.8415 0 0
              CHANNELS 3 Zrotation Xrotation Yrotation
              JOINT RightHand
              {
                OFFSET -28.3288 0 0.0001
                CHANNELS 3 Zrotation Xrotation Yrotation
                End Site
                {
                  OFFSET 0 0 0
                }
              }
            }
          }
        }
      }
    }
  }
  JOINT LeftUpLeg
  {
    OFFSET 8.2078 -6.7517 -1.5996
    CHANNELS 3 Zrotation Xrotation Yrotation
    JOINT LeftLeg
    {
      OFFSET 0 -44.3705 0.2846
      CHANNELS 3 Zrotation Xrotation Yrotation
      JOINT LeftFoot
      {
        OFFSET 0 -44.4279 -2.9822
        CHANNELS 3 Zrotation Xrotation Yrotation
        JOINT LeftToeBase
        {
          OFFSET 0 -8.7287 10.7106
          CHANNELS 3 Zrotation Xrotation Yrotation
          End Site
          {
            OFFSET 0 0 0
          }
        }
      }
    }
  }
  JOINT RightUpLeg
  {
    OFFSET -8.2078 -6.7517 -1.5996
    CHANNELS 3 Zrotation Xrotation Yrotation
    JOINT RightLeg
    {
      OFFSET 0 -44.3705 0.2862
      CHANNELS 3 Zrotation Xrotation Yrotation
      JOINT RightFoot
      {
        OFFSET 0 -44.4277 -2.9838
        CHANNELS 3 Zrotation Xrotation Yrotation
        JOINT RightToeBase
        {
          OFFSET 0 -8.7287 10.7106
          CHANNELS 3 Zrotation Xrotation Yrotation
          End Site
          {
            OFFSET 0 0 0
          }
        }
      }
    }
  }
}
MOTION
Frames:	6
Frame Time:	0.0333333
0.0483966 85.9705 1.91466 4.46509 22.1737 16.19 -1.88941 15.1605 -11.6647 -0.717944 1.16344 -3.02914 -0.697507 1.19756 -2.98909 -1.37297 -7.43658 1.53832 4.19799 -24.6998 -2.67556 -18.5051 3.37138 -9.87944 -39.8868 -7.77955 -30.6619 -0.000214826 -1.20557e-05 -101.392 14.0727 31.5884 -17.4696 12.3536 0.0636809 -3.17606 63.1001 4.03463 -44.4918 -7.78162e-06 3.92166e-06 65.6525 -20.1584 12.9281 16.0998 -5.78132 -28.9838 -2.69851 7.06291 55.3622 -12.921 -3.92137 -37.8751 -1.15431 5.18222e-07 -10.9789 3.29788e-06 -48.8293 -63.8622 -43.6171 -178.262 59.4531 -179.458 -13.166 -5.62447 -0.554518 8.28078e-06 -6.00867 -3.42702e-06 
0.147445 97.8755 16.1081 -4.41429 11.8537 13.9049 0.617608 12.1576 -10.9768 1.12567 0.342352 -1.66979 1.1077 1.52713 -1.63509 -1.57163 -8.35074 1.55515 3.73033 -14.7514 1.70572 -8.10209 2.37467 -10.4368 -50.1446 -16.467 -39.2615 -0.000274658 -8.94304e-16 -97.3225 13.552 39.8807 -14.221 6.32654 0.703773 -3.53666 64.8771 14.0534 -56.2695 3.78064e-06 -7.96252e-06 61.5549 -4.08724 10.9638 5.58585 9.24911 -3.19629 9.04985 5.63877 29.5118 -6.70324 -9.52966 -9.98797 4.78911 1.25907e-06 -18.8696 -7.13135e-06 -51.2537 -72.2691 -51.0849 -179.651 66.0716 -172.618 -8.24205 2.72694 2.79934 -8.04456e-06 8.73036 -2.36201e-06 
0.783671 110.894 30.0946 -12.3484 3.69895 8.42412 4.63867 8.94159 -10.9815 4.55162 -1.67141 -0.374801 4.55206 1.10445 -0.419729 -3.53179 -7.84333 1.27631 0.19033 -1.19542 5.0565 -1.63642 1.43427 -8.6833 -59.385 -23.0827 -45.7118 -0.000274448 5.06035e-06 -94.7558 11.4938 42.3012 -8.64444 -1.381 1.54784 -2.79379 67.5196 19.8745 -65.2743 -2.44896e-06 -2.67528e-06 52.5551 7.35076 0.349697 -0.0546648 17.1578 15.7079 12.5044 5.44771 17.4489 -2.5344 -14.6568 5.14544 15.4448 6.02518e-06 -4.66657 3.83704e-06 -62.0625 -80.4154 -66.6881 179.475 70.1447 -171.184 -0.472846 11.3852 4.84112 -8.15118e-07 22.2782 2.96281e-06 
1.34689 124.235 43.9687 -16.2239 -1.61736 2.64975 7.07285 7.11643 -11.795 7.96332 -3.54151 0.779433 7.98915 0.928746 0.475436 -6.14527 -5.94041 0.879121 -4.95869 12.3462 8.2124 0.901107 0.77099 -5.85739 -65.2081 -27.9891 -47.8158 -0.0002747 -1.59442e-06 -92.9948 11.9161 38.7747 -5.34713 -8.30393 2.31007 -1.56185 68.0957 21.8468 -68.2724 -5.03165e-06 -6.10188e-06 39.0122 15.0814 -11.938 -2.02033 19.6594 23.614 13.0609 5.37161 25.6874 -0.772898 -19.8555 6.60003 24.0783 1.17525e-05 8.34736 -1.79758e-05 -127.633 -82.6997 -133.377 179.082 70.2876 -171.73 8.25053 19.0645 1.78277 1.32425e-06 31.4426 -1.45812e-06 
1.23927 137.73 58.1976 -13.6882 -5.15578 -0.893705 5.0359 7.78788 -12.8759 9.65892 -3.92125 1.46163 9.6805 1.9516 0.857611 -7.85779 -3.45464 0.496734 -9.69989 21.3606 10.4268 0.607763 0.538374 -3.87434 -66.2529 -30.7817 -43.453 -0.000244155 -2.92283e-06 -90.5488 17.054 32.6835 -9.81173 -11.8023 2.74923 -0.990424 66.0085 21.2887 -65.1728 -4.49917e-06 6.62551e-07 23.8277 21.6171 -17.875 -3.571 13.7433 31.2572 14.2101 4.06161 29.1285 2.33941 -23.9153 10.1467 26.9294 -1.95631e-06 9.51115 2.35159e-05 -160.275 -76.1994 -162.547 -179.749 67.5752 -175.381 13.7376 21.3605 -1.9413 1.90657e-06 33.8189 2.76468e-07 
0.501866 150.875 72.7181 -7.09254 -8.36773 -1.89955 -0.240041 10.4917 -12.8116 9.27533 -2.31874 1.58517 9.25715 4.54084 0.8308 -7.85111 -1.49785 0.033604 -11.9628 23.8591 10.3029 -0.812703 0.636202 -3.68141 -63.5088 -30.2681 -33.2054 -0.000261529 -2.63788e-06 -86.52 24.8397 27.8849 -23.6827 -11.1539 2.81966 -1.73281 62.787 20.0192 -59.4313 -2.06092e-06 6.81753e-06 11.4288 27.7522 -14.6262 -7.5122 3.57709 37.9034 15.782 1.86086 29.0102 5.63977 -24.6946 19.0409 22.8815 -9.87327e-06 6.68624 2.89178e-06 -171.933 -71.8895 -169.123 -176.562 64.3901 179.097 13.8869 17.25 -2.74766 6.95538e-07 30.0082 -1.1026e-06 
